<svg width="570" height="616" viewBox="0 0 570 616" fill="none" xmlns="http://www.w3.org/2000/svg">
<path d="M346.231 475.912C298.714 543.772 201.167 565.999 133.306 518.482C65.4455 470.965 52.9684 371.699 100.485 303.839C148.002 235.978 241.534 219.486 309.394 267.002C377.255 314.519 393.747 408.051 346.231 475.912Z" fill="#7D8491"/>
<path d="M430.992 93.342L374.364 400.696L161.542 251.676L430.992 93.342Z" fill="#7D8491"/>
<path d="M471.313 203.442L361.144 448.51L310.304 500.197L227.235 369.699L471.313 203.442Z" fill="#7D8491"/>
<path d="M269.451 118.12L186.756 401.628L109.742 289.387L269.451 118.12Z" fill="#7D8491"/>
<circle cx="213.607" cy="403.801" r="100" transform="rotate(35 213.607 403.801)" fill="white"/>
</svg>
